# xmcd
#
# Track frame offsets: 
#        180
#        20453
#        33032
#        55880
#        76775
#        121562
#        154898
#        182218
#        205510
#        227399
#        254828
#        286361
#
# Disc length: 4228 seconds
#
# Revision: 0
# Processed by: cddbd v1.5.2PL0 Copyright (c) Steve Scherf et al.
# Submitted via: ExactAudioCopyFreeDBPlugin 1.0
#
DISCID=9010820c
DTITLE=Chump Change - It's A Blues Affair
DYEAR=1997
DGENRE=Blues
TTITLE0=I Give All That I Can Give
TTITLE1=Family Life Blues
TTITLE2=You're So Evil
TTITLE3=Early Boogie
TTITLE4=Bad Surprise
TTITLE5=Blues Affair
TTITLE6=All About My Girl
TTITLE7=It Don't Take Too Much
TTITLE8=I Need You So Bad
TTITLE9=N.C.C.E.
TTITLE10=Preaching ('bout The) Blues
TTITLE11=Gotta Get On Up
EXTD=
EXTT0=
EXTT1=
EXTT2=
EXTT3=
EXTT4=
EXTT5=
EXTT6=
EXTT7=
EXTT8=
EXTT9=
EXTT10=
EXTT11=
PLAYORDER=
